<?xml version="1.0" encoding="UTF-8" standalone="no"?>
<svg
   xmlns:dc="http://purl.org/dc/elements/1.1/"
   xmlns:cc="http://creativecommons.org/ns#"
   xmlns:rdf="http://www.w3.org/1999/02/22-rdf-syntax-ns#"
   xmlns:svg="http://www.w3.org/2000/svg"
   xmlns="http://www.w3.org/2000/svg"
   xmlns:sodipodi="http://sodipodi.sourceforge.net/DTD/sodipodi-0.dtd"
   xmlns:inkscape="http://www.inkscape.org/namespaces/inkscape"
   width="393.07501"
   height="505.40503"
   viewBox="0 0 314.46001 404.32402"
   version="1.1"
   id="svg2"
   inkscape:version="0.48.1 "
   sodipodi:docname="ZZ1.svg">
  <metadata
     id="metadata44">
    <rdf:RDF>
      <cc:Work
         rdf:about="">
        <dc:format>image/svg+xml</dc:format>
        <dc:type
           rdf:resource="http://purl.org/dc/dcmitype/StillImage" />
      </cc:Work>
    </rdf:RDF>
  </metadata>
  <defs
     id="defs42" />
  <sodipodi:namedview
     pagecolor="#ffffff"
     bordercolor="#666666"
     borderopacity="1"
     objecttolerance="10"
     gridtolerance="10"
     guidetolerance="10"
     inkscape:pageopacity="0"
     inkscape:pageshadow="2"
     inkscape:window-width="1280"
     inkscape:window-height="1004"
     id="namedview40"
     showgrid="false"
     fit-margin-top="0"
     fit-margin-left="0"
     fit-margin-right="0"
     fit-margin-bottom="0"
     inkscape:zoom="1.3878508"
     inkscape:cx="196.4625"
     inkscape:cy="213.63882"
     inkscape:window-x="-8"
     inkscape:window-y="-8"
     inkscape:window-maximized="1"
     inkscape:current-layer="svg2" />
  <g
     id="#ea0033ff"
     transform="translate(-5.33,-14.650002)">
    <path
       d="m 143.21,48.18 c 6.58,-11.14 12.67,-22.56 19.53,-33.53 16.96,29.82 34.3,59.43 51.35,89.2 1.35,1.49 -0.09,3.16 -0.78,4.58 -16.06,27.6 -32,55.27 -47.94,82.95 -0.69,1.47 -2.09,2.74 -2.15,4.44 1.46,0.82 3.18,0.49 4.79,0.58 33.13,-0.09 66.27,0.03 99.4,-0.04 17.42,30.32 35.09,60.5 52.38,90.89 -34.91,0 -69.82,0.03 -104.73,-0.01 -16.56,-29.16 -33.6,-58.04 -50.16,-87.2 -0.75,-1.14 -1.29,-2.58 -2.59,-3.2 -6.58,10.71 -12.56,21.78 -18.93,32.61 -11.07,19.29 -22.36,38.44 -33.31,57.79 -34.91,0 -69.82,0 -104.74,0 17.38,-30.35 34.91,-60.61 52.4,-90.89 34.96,0.07 69.91,-0.06 104.87,0.06 -16.86,-29.47 -33.83,-58.88 -50.9,-88.22 -0.53,-1.22 -1.96,-2.67 -0.83,-4 10.67,-18.73 21.65,-37.29 32.34,-56.01 z"
       id="path5"
       inkscape:connector-curvature="0"
       style="fill:#ea0033" />
  </g>
  <g
     id="#000000ff"
     transform="translate(-5.33,-14.650002)">
    <path
       d="m 23.72,313.45 c 3.36,-0.03 6.72,-0.03 10.07,-0.02 2.32,6.84 5.09,13.52 7.23,20.43 2.33,-6.9 5.09,-13.63 7.61,-20.45 3.24,0.01 6.48,0.02 9.72,0.03 0.01,14.5 -0.02,29 0.02,43.5 -2.41,-0.16 -5.65,1.33 -7.49,-0.56 -0.14,-10.5 -0.53,-21.06 0.34,-31.54 -3.81,8.1 -6.76,16.56 -10.22,24.81 -3.19,-8.23 -6.7,-16.33 -9.63,-24.66 -0.1,10.76 0.02,21.53 -0.06,32.3 -2.43,-0.34 -5.39,0.68 -7.48,-0.87 -0.28,-14.32 -0.01,-28.65 -0.11,-42.97 z"
       id="path8"
       inkscape:connector-curvature="0"
       style="fill:#000000" />
    <path
       d="m 78.35,313.41 c 8.67,0.02 17.34,-0.03 26.01,0 0,2.15 0,4.29 0,6.44 -2.99,0.01 -5.97,0.01 -8.95,0.01 -0.11,12.45 0.01,24.9 -0.07,37.36 -2.66,0 -5.31,0.01 -7.97,0.03 -0.15,-12.37 -0.03,-24.74 -0.06,-37.1 -2.96,-0.02 -5.92,-0.03 -8.88,-0.02 -0.04,-2.24 -0.06,-4.48 -0.08,-6.72 z"
       id="path10"
       inkscape:connector-curvature="0"
       style="fill:#000000" />
    <path
       d="m 107.39,319.41 c 3.92,-7.83 16.18,-9.38 21.79,-2.57 2.58,2.56 3.11,6.28 3.57,9.72 -2.54,0.03 -5.09,0.03 -7.63,0.01 -0.51,-1.65 -0.55,-3.52 -1.63,-4.93 -1.35,-1.05 -2.99,-1.6 -4.52,-2.31 -2.27,1.26 -5.46,2.58 -5.28,5.73 0.99,3.51 4.71,4.93 7.57,6.61 4.87,2.52 10.58,5.6 11.87,11.43 1.47,6.27 -3.24,12.68 -9.28,14.21 -5.1,0.92 -11.05,0.69 -14.96,-3.16 -3.29,-2.85 -3.76,-7.4 -4.39,-11.42 2.57,0 5.14,0 7.71,0 0.85,2.51 1.11,5.94 3.99,7.03 2.59,1.43 5.52,0.26 8.14,-0.46 0.55,-2.37 1.66,-5.12 -0.26,-7.19 -4.03,-4.37 -10.57,-5.19 -14.66,-9.55 -3.49,-3.3 -4.04,-8.94 -2.03,-13.15 z"
       id="path12"
       inkscape:connector-curvature="0"
       style="fill:#000000" />
    <path
       d="m 137.87,313.44 c 2.57,-0.01 5.15,-0.02 7.73,-0.02 0.09,10.55 -0.14,21.12 0.07,31.67 0.21,5.17 7.57,7.02 10.98,3.65 2.02,-1.62 1.85,-4.4 1.9,-6.71 -0.04,-9.54 -0.03,-19.07 -0.02,-28.61 2.58,0 5.17,0.01 7.76,0.03 0.01,9.83 -0.03,19.66 0.03,29.48 0.02,2.72 -0.11,5.56 -1.46,7.99 -4.92,9.34 -20.84,9.11 -25.55,-0.32 -1.54,-2.93 -1.45,-6.35 -1.5,-9.55 0.07,-9.2 -0.01,-18.41 0.06,-27.61 z"
       id="path14"
       inkscape:connector-curvature="0"
       style="fill:#000000" />
    <path
       d="m 173.6,313.42 c 6.16,0.09 12.33,-0.27 18.48,0.15 6.56,0.79 11.24,8.19 8.99,14.46 -0.87,3.06 -3.85,4.62 -6.51,5.87 4.58,1.62 8.43,5.95 8.16,11 0.29,3.69 -1.33,7.4 -4.25,9.66 -2.62,2.18 -6.19,2.32 -9.42,2.58 -5.14,0.15 -10.28,0.05 -15.41,0.09 -0.07,-14.61 -0.01,-29.21 -0.04,-43.81 m 8.09,6.8 c -0.02,10.07 -0.01,20.14 0,30.21 3.03,-0.09 6.15,0.29 9.13,-0.46 4.47,-1.14 5.48,-7.99 1.83,-10.62 -2.3,-1.9 -5.45,-1.73 -8.24,-2.07 0.01,-2.12 0.02,-4.24 0.04,-6.35 1.85,-0.26 3.76,-0.26 5.54,-0.87 2.94,-0.9 4.31,-4.85 2.53,-7.37 -2.22,-3.8 -7.25,-2.07 -10.83,-2.47 z"
       id="path16"
       inkscape:connector-curvature="0"
       style="fill:#000000" />
    <path
       d="m 207.55,313.4 c 2.75,0 5.5,0.01 8.26,0.02 -0.08,14.62 0.08,29.25 -0.09,43.87 -2.72,-0.02 -5.43,-0.03 -8.14,-0.03 -0.06,-14.62 -0.01,-29.24 -0.03,-43.86 z"
       id="path18"
       inkscape:connector-curvature="0"
       style="fill:#000000" />
    <path
       d="m 224.29,318.37 c 4.31,-6.26 14.21,-7.8 19.94,-2.6 3.25,2.63 4.29,6.87 4.61,10.85 -2.43,0.04 -4.86,0.05 -7.29,0.09 -0.82,-2.53 -1.39,-6.22 -4.7,-6.48 -3.72,-1.1 -8.19,2.38 -6.33,6.35 4.73,5.8 13.62,6.66 17.52,13.42 3.79,6.2 -0.07,14.79 -6.74,17.01 -5.68,1.6 -12.72,1.23 -16.93,-3.42 -2.87,-2.83 -3.21,-7.01 -3.34,-10.79 2.46,-0.01 4.93,0 7.39,0 0.75,3.1 1.68,7.2 5.55,7.6 3.97,1.36 8.97,-2.07 7.33,-6.48 -3,-5.71 -10.37,-6.27 -14.85,-10.41 -4.56,-3.44 -5.47,-10.55 -2.16,-15.14 z"
       id="path20"
       inkscape:connector-curvature="0"
       style="fill:#000000" />
    <path
       d="m 253.71,313.43 c 2.69,-0.02 5.37,-0.04 8.06,-0.06 0,5.76 0.01,11.51 -0.01,17.27 5.49,0.11 10.98,0.11 16.47,0.01 -0.02,-5.76 -0.01,-11.51 -0.01,-17.27 2.51,0.01 5.02,0.02 7.53,0.02 -0.03,14.61 0.09,29.23 -0.06,43.84 -2.48,-0.01 -4.95,-0.01 -7.42,0 -0.14,-6.56 0.09,-13.11 -0.17,-19.66 -0.59,6.56 -0.23,13.15 -0.52,19.73 -0.13,-6.55 -0.05,-13.1 0.24,-19.64 -5.11,0.08 -10.23,-0.19 -15.33,0.09 -0.96,1.19 -0.63,2.82 -0.75,4.23 0,5.09 0.09,10.17 -0.04,15.26 -2.66,-0.02 -5.31,-0.03 -7.97,-0.04 -0.03,-14.59 0,-29.19 -0.02,-43.78 z"
       id="path22"
       inkscape:connector-curvature="0"
       style="fill:#000000" />
    <path
       d="m 293.31,313.38 c 2.72,0.01 5.45,0.02 8.18,0.02 -0.02,14.62 0.03,29.25 -0.03,43.87 -2.71,-0.01 -5.41,0 -8.11,0.01 -0.1,-14.63 -0.03,-29.27 -0.04,-43.9 z"
       id="path24"
       inkscape:connector-curvature="0"
       style="fill:#000000" />
    <path
       d="m 65.78,313.43 c 2.87,-0.03 5.73,-0.03 8.6,-0.02 -0.01,14.62 0.02,29.24 -0.02,43.87 -2.62,0 -5.25,0.09 -7.86,-0.1 -0.92,-1.17 -0.63,-2.76 -0.75,-4.13 0.06,-13.21 0.02,-26.42 0.03,-39.62 z"
       id="path26"
       inkscape:connector-curvature="0"
       style="fill:#000000" />
    <path
       d="m 118.66,374 c 5.65,-0.76 11.71,1.73 14.95,6.49 4.11,5.95 4.72,13.6 3.97,20.61 -0.7,5.63 -2.88,11.55 -7.66,14.97 -7.19,5.16 -18.8,3.03 -22.95,-5.05 -4.36,-7.96 -4.36,-17.82 -1.35,-26.24 1.96,-5.63 7.04,-10.13 13.04,-10.78 m -0.09,7.67 c -3.62,1.1 -5.44,4.83 -6.21,8.26 -1.37,5.87 -1.2,12.46 1.81,17.81 1.69,3.15 5.59,4.52 8.97,3.57 4.26,-1.99 6.29,-6.85 6.38,-11.33 0.21,-5.23 0.35,-11.01 -2.8,-15.48 -1.75,-2.59 -5.17,-3.84 -8.15,-2.83 z"
       id="path28"
       inkscape:connector-curvature="0"
       style="fill:#000000" />
    <path
       d="m 178.6,373.93 c 5.12,-0.5 10.58,1.52 13.81,5.61 3.99,4.84 5.07,11.36 5.08,17.46 -0.18,6.4 -1.81,13.25 -6.53,17.87 -4.75,4.56 -12.38,5.06 -18.14,2.27 -5.68,-2.97 -8.66,-9.37 -9.38,-15.5 -0.5,-6.21 -0.38,-12.79 2.43,-18.49 2.38,-4.92 7.19,-8.73 12.73,-9.22 m -0.19,7.64 c -4.12,1.22 -6.08,5.64 -6.76,9.55 -0.61,4.97 -0.78,10.27 1.23,14.96 1.21,2.86 3.79,5.58 7.12,5.48 4.03,0.39 7.08,-3.18 8.14,-6.71 1.86,-6.09 1.74,-12.97 -0.9,-18.8 -1.36,-3.4 -5.27,-5.48 -8.83,-4.48 z"
       id="path30"
       inkscape:connector-curvature="0"
       style="fill:#000000" />
    <path
       d="m 235.28,381.29 c 3.6,-7.84 15.22,-9.96 21.35,-3.9 3.1,2.54 3.95,6.59 4.28,10.38 -2.56,0.02 -5.11,0.02 -7.66,-0.01 -0.62,-2.16 -0.7,-4.97 -3.07,-6.02 -2.54,-1 -6.02,-0.63 -7.55,1.89 -0.83,1.82 -0.73,4.38 1.03,5.63 5.29,4.39 12.91,6 16.59,12.23 3.57,6.3 -0.47,14.72 -7.21,16.72 -5.85,1.51 -13.2,1.09 -17.16,-4.09 -2.5,-2.69 -2.57,-6.48 -2.88,-9.92 2.59,0.03 5.18,0.07 7.77,0.18 0.55,1.95 0.49,4.32 2.16,5.76 3.45,3.32 11.52,1.52 10.55,-4.22 -1.78,-5.68 -8.6,-6.49 -12.89,-9.62 -5.2,-2.79 -7.94,-9.56 -5.31,-15.01 z"
       id="path32"
       inkscape:connector-curvature="0"
       style="fill:#000000" />
    <path
       d="m 63.59,374.58 c 3.34,-0.01 6.67,-0.01 10.01,-0.04 2.59,6.82 5.18,13.64 7.36,20.6 2.31,-6.95 4.95,-13.79 7.65,-20.59 3.24,0.02 6.48,0.02 9.72,0.03 0.01,14.56 0.03,29.13 0,43.69 -2.56,0 -5.11,0 -7.66,0 -0.09,-10.65 0.1,-21.3 -0.12,-31.94 -2.89,8.33 -6.46,16.41 -9.63,24.64 -3.21,-8.28 -6.69,-16.45 -9.57,-24.85 -0.07,10.71 0,21.43 -0.04,32.15 -2.57,0 -5.14,0 -7.7,0 -0.05,-14.56 -0.03,-29.13 -0.02,-43.69 z"
       id="path34"
       inkscape:connector-curvature="0"
       style="fill:#000000" />
    <path
       d="m 137.62,374.58 c 8.65,-0.01 17.31,0.01 25.96,-0.01 0,2.22 0,4.45 0,6.68 -3.01,0 -6.01,0.01 -9.02,0.04 0.03,12.33 0.04,24.66 0,36.99 -2.67,-0.01 -5.34,-0.01 -8,-0.01 -0.05,-12.34 -0.01,-24.68 -0.02,-37.02 -2.97,0 -5.94,0 -8.91,0 -0.01,-2.22 -0.01,-4.45 -0.01,-6.67 z"
       id="path36"
       inkscape:connector-curvature="0"
       style="fill:#000000" />
    <path
       d="m 202.35,418.28 c -0.07,-14.57 -0.04,-29.15 -0.01,-43.72 6.94,0.51 14.24,-1.19 20.9,1.25 8.97,3.26 10.3,17.97 1.58,22.26 -0.45,0.28 -1.36,0.83 -1.81,1.11 3.58,6.41 7.51,12.62 11.05,19.06 -3.13,0.02 -6.27,0.03 -9.4,0.06 -3.94,-7.7 -7.93,-15.38 -11.66,-23.18 2.35,-0.55 5.16,-0.18 7.12,-1.85 3.36,-2.61 3.39,-8.84 -0.54,-10.92 -2.83,-1.49 -6.16,-1.05 -9.24,-1.25 -0.07,12.39 0.01,24.77 -0.04,37.16 -2.65,0 -5.3,0.01 -7.95,0.02 z"
       id="path38"
       inkscape:connector-curvature="0"
       style="fill:#000000" />
  </g>
</svg>
