<?xml version="1.0" encoding="utf-8"?>
<!-- Generator: Adobe Illustrator 26.5.0, SVG Export Plug-In . SVG Version: 6.00 Build 0)  -->
<svg version="1.1" id="Capa_1" xmlns="http://www.w3.org/2000/svg" xmlns:xlink="http://www.w3.org/1999/xlink" x="0px" y="0px"
	 viewBox="0 0 290.1 52.2" style="enable-background:new 0 0 290.1 52.2;" xml:space="preserve">
<style type="text/css">
	.st0{fill:#231F20;}
	.st1{fill:#E6262B;}
</style>
<g transform="translate(72.778 128.789)">
	<path class="st0" d="M37.8-122.6l2.9-6.1H2c0,0-6.9-1.4-10.4,6.3c-3.5,7.7-9.5,21.1-9.5,21.1h52.2l3.4-6.3h-35c0,0-2-3.7,2.3-5.5
		h27l2.7-5.1h-26c0,0-1.9-3.5,2.2-4.3L37.8-122.6z"/>
	<path class="st0" d="M-72.8-128.4h21.2l6,24.6l25.5-24.3h12.6L-41.9-96h-20.6L-72.8-128.4z"/>
	<path class="st1" d="M63.7-122.6l2.8-5.6H50l-2.8,5.6H63.7z"/>
	<path class="st0" d="M46.2-120.4l-9.5,19.1H53l9.6-19.1H46.2z"/>
	<path class="st0" d="M56.7-100.8h8.6l5.8-12.2l24.2,12.4h8.6l13.5-27.6h-8.1l-6,12.6l-23.4-12.6H68.6L56.7-100.8z"/>
	<path class="st0" d="M181.2-107.1c-0.2,0-0.5,0.1-0.6,0.3c-0.7,0.9-4.3,5.4-4.7,5.9c-0.1,0.1-0.1,0.3,0,0.3c0,0,0.1,0,0.1,0.1h40.9
		c0.4,0,0.4-0.5,0.3-0.7c-2.6-3.2-20.8-24.8-22.3-26.7c-0.1-0.2-0.4-0.3-0.6-0.2h-12.9c-0.2,0-0.4,0.1-0.6,0.3
		c-4.9,5.7-19.1,22.8-22.4,26.9c-0.2,0.2-0.1,0.4,0.2,0.4h12.6c0.2,0,0.4-0.1,0.5-0.3c0.9-1.1,14.1-17.6,15.9-19.8
		c0-0.1,0.1-0.1,0.2-0.1c0.1,0,0.2,0,0.2,0.1c1.2,1.4,9.4,11.8,10.4,13.2c0.1,0.1,0.1,0.2,0,0.3c0,0-0.1,0.1-0.2,0.1L181.2-107.1"/>
	<path class="st0" d="M138.4-121.5h28.4l3-6.4h-40.7c0,0-7.2-1.5-10.9,6.6L116-117l-2.8,5.4h27.4c0,0,1.9,3.7-2.3,4.6h-28.4l-3,6.4
		h40.7c0,0,7.2,1.5,10.9-6.6l2.2-4.4l2.8-5.4h-27.4C136.1-117,134.2-120.7,138.4-121.5z"/>
</g>
<g transform="translate(278.816 161.832)">
	<g transform="translate(0 0)">
		<path class="st0" d="M-72.8-109.9l3.6-18.6h5.6l0.2,12.6h0l5.2-12.6h5.4l-3.6,18.6h-3.4l2.7-14.3h0l-6,14.3h-3.3l-0.3-14.3h0
			l-2.7,14.3H-72.8z"/>
		<path class="st0" d="M-52.3-119.2c0.9-4.9,1.8-9.6,7.6-9.6s4.9,4.7,3.9,9.6c-0.9,4.9-1.8,9.6-7.6,9.6S-53.2-114.3-52.3-119.2z
			 M-44.3-119.2c0.9-4.8,1.1-6.8-0.9-6.8s-2.6,2.1-3.5,6.8s-1,6.8,0.9,6.8S-45.2-114.4-44.3-119.2L-44.3-119.2z"/>
		<path class="st0" d="M-26.7-128.5l-0.6,3.1h-3.9l-3,15.5h-3.5l3-15.5h-3.9l0.6-3.1H-26.7z"/>
		<path class="st0" d="M-27.5-119.2c0.9-4.9,1.8-9.6,7.6-9.6s4.9,4.7,3.9,9.6c-0.9,4.9-1.8,9.6-7.6,9.6S-28.4-114.3-27.5-119.2z
			 M-19.5-119.2c0.9-4.8,1-6.8-0.9-6.8s-2.6,2.1-3.5,6.8s-1.1,6.8,0.9,6.8S-20.4-114.4-19.5-119.2z"/>
		<path class="st0" d="M-12-109.9h-3.5l3.6-18.6h6.5c2.4,0,3.6,1.7,3,4.9c-0.5,2.4-1.6,4.1-4,4.6l0,0c0.7,0.1,3,0.3,2.3,3.7
			c-0.4,1.8-0.6,3.6-0.7,5.5h-3.4c-0.1-1.2,0-2.4,0.3-3.6c0.4-2.2,1-4.1-1.7-4.1h-0.9L-12-109.9z M-9.9-120.5h1.6
			c1.4,0,2.1-1.5,2.3-2.7c0.3-1.8-0.2-2.4-1.3-2.4h-1.6L-9.9-120.5z"/>
		<path class="st0" d="M1.5-109.6c-4.3,0-4.6-2.8-3.8-6h3.5c-0.3,1.8-0.6,3.3,1.4,3.3c1.2,0,1.9-0.9,2.2-2.1
			c0.6-3.3-6.4-3.6-5.3-9.1c0.6-2.9,2.2-5.2,6.5-5.2c3.4,0,4.8,1.7,3.8,5.6H6.4c0.3-1.4,0.3-2.8-1.1-2.8c-1.1,0-2.1,0.9-2.2,2
			c-0.7,3.5,6.4,3.2,5.3,9.1C7.5-110.2,4.2-109.6,1.5-109.6z"/>
	</g>
</g>
</svg>
