              <svg id="illustration-tools" class="overflow-visible" xmlns="http://www.w3.org/2000/svg" viewBox="0 0 495 430">
          <g class="illustration-reveal svg-shadow">
            <g class="illustration-loop">
              <path class="st0" d="M302 73h-49c-6.6 0-12-5.4-12-12V12c0-6.6 5.4-12 12-12h49c6.6 0 12 5.4 12 12v49c0 6.6-5.4 12-12 12z"></path>
              <g>
                <path d="M290.3 20h-24.8c-1.5 0-2.7 1.2-2.7 2.7v24.8c0 1.5 1.2 2.7 2.7 2.7h24.8c1.5 0 2.7-1.2 2.7-2.7V22.7c0-1.5-1.2-2.7-2.7-2.7" fill="#dc395f"></path>
                <path class="st0" d="M272.8 29.5c1 0 1.9-.8 1.9-1.8s-.8-1.8-1.9-1.8-1.9.8-1.9 1.8c.1 1 .9 1.8 1.9 1.8m-3.8 9.8c-.1.5-.2 1-.2 1.4 0 1.6.9 2.7 2.7 2.7 1.5 0 2.8-.9 3.7-2.4l-.5 2.2h3l1.7-7c.4-1.8 1.3-2.7 2.6-2.7 1 0 1.6.6 1.6 1.7 0 .3 0 .6-.1 1l-.9 3.2c-.1.5-.2.9-.2 1.4 0 1.5.9 2.6 2.8 2.6 1.6 0 2.9-1 3.6-3.5l-1.2-.5c-.6 1.7-1.1 2-1.5 2s-.6-.3-.6-.8c0-.2.1-.5.1-.8l.9-3.1c.2-.7.3-1.4.3-2 0-2.3-1.4-3.6-3.1-3.6-1.6 0-3.2 1.4-4.1 3l.6-2.7h-4.7l-.7 2.4h2.2l-1.3 5.4c-1.1 2.3-3 2.4-3.2 2.3-.4-.1-.7-.2-.7-.8 0-.3.1-.7.2-1.2l2-8.1h-5.2l-.7 2.4h2.2l-1.3 5.5"></path>
              </g>
            </g>
          </g>
          <g class="illustration-reveal svg-shadow">
            <g class="illustration-loop">
              <path class="st0" d="M105 120H42c-6.6 0-12-5.4-12-12V45c0-6.6 5.4-12 12-12h63c6.6 0 12 5.4 12 12v63c0 6.6-5.4 12-12 12z"></path>
              <g>
                <path d="M54.9 58.7h37.4v36.4H54.9V58.7z" fill="#2e001e"></path>
                <path class="st3" d="M53.2 57v39.8H94V57H53.2zm1.7 1.7h37.4v36.4H54.9V58.7z"></path>
                <path class="st3" d="M82.8 73.7c-.3-.1-.6-.2-1-.2-2.1 0-3.6 1.6-3.6 4.4 0 3.1 1.5 4.4 3.4 4.4.4 0 .8-.1 1.2-.2v-8.4zm-7.6 4.4c0-4 2.5-7.1 6.7-7.1h.9v-4.4c0-.1.1-.2.2-.2h2.7c.1 0 .2.1.2.1V82c0 .5 0 1 .1 1.7 0 .1 0 .1-.1.2-1.4.7-2.9 1-4.4 1-3.6.1-6.3-2.2-6.3-6.8zm-5.8-2.8l4.8 9.2c.1.1 0 .3-.1.3h-3c-.2 0-.3-.1-.4-.2-1.1-2.2-2.2-4.6-3.3-7-1 2.3-2.1 4.8-3.2 7-.1.1-.2.2-.3.2H61c-.2 0-.2-.1-.1-.2l4.7-9-4.5-8.9c-.1-.1 0-.3.1-.3h2.9c.2 0 .3 0 .3.2 1.1 2.3 2.2 4.5 3.2 6.8 1-2.2 2.1-4.5 3.1-6.7.1-.1.1-.2.3-.2h2.7c.1 0 .2.1.1.3l-4.4 8.5z"></path>
              </g>
            </g>
          </g>
          <g class="illustration-reveal svg-shadow">
            <g class="illustration-loop">
              <path class="st0" d="M483 153H368c-6.6 0-12-5.4-12-12V26c0-6.6 5.4-12 12-12h115c6.6 0 12 5.4 12 12v115c0 6.6-5.4 12-12 12z"></path>
              <path id="a_1_" class="st4" d="M404.2 76.2l21.2 41.4-35.6-41.4h14.4z"></path>
              <path id="b_1_" class="st4" d="M446.6 76.2l-21.2 41.4L461 76.2h-14.4z"></path>
              <path id="c_1_" class="st5" d="M404.2 76.2h42.3l-21.2 41.4-21.1-41.4z"></path>
              <path id="d_1_" class="st6" d="M425.4 53.2l-20.1 2.1-1.1 20.8 21.2-22.9z"></path>
              <path id="e_1_" class="st6" d="M425.4 53.2l20.1 2.1 1.1 20.8-21.2-22.9z"></path>
              <path id="f_1_" class="st5" d="M461 76.2l-15.5-20.8 1.1 20.8H461z"></path>
              <path id="g_1_" class="st5" d="M389.8 76.2l15.5-20.8-1.1 20.8h-14.4z"></path>
              <path id="h_1_" d="M425.4 53.2l-21.2 23h42.3l-21.1-23z" fill-rule="evenodd" clip-rule="evenodd" fill="#feeeb7"></path>
            </g>
          </g>
          <g class="illustration-reveal svg-shadow">
            <g class="illustration-loop">
              <path class="st0" d="M293 294H143c-6.6 0-12-5.4-12-12V132c0-6.6 5.4-12 12-12h150c6.6 0 12 5.4 12 12v150c0 6.6-5.4 12-12 12z"></path>
              <g>
                <path d="M201.3 263c9.7 0 17.5-7.8 17.5-17.5V228h-17.5c-9.7 0-17.5 7.8-17.5 17.5s7.9 17.5 17.5 17.5z" fill="#0acf83"></path>
                <path d="M183.8 210.5c0-9.7 7.8-17.5 17.5-17.5h17.5v35h-17.5c-9.6 0-17.5-7.8-17.5-17.5z" fill="#a259ff"></path>
                <path d="M183.8 175.5c0-9.7 7.8-17.5 17.5-17.5h17.5v35h-17.5c-9.6 0-17.5-7.8-17.5-17.5z" fill="#f24e1e"></path>
                <path d="M218.8 158h17.5c9.7 0 17.5 7.8 17.5 17.5S246 193 236.3 193h-17.5v-35z" fill="#ff7262"></path>
                <path d="M253.8 210.5c0 9.7-7.8 17.5-17.5 17.5s-17.5-7.8-17.5-17.5 7.8-17.5 17.5-17.5 17.5 7.8 17.5 17.5z" fill="#1abcfe"></path>
              </g>
            </g>
          </g>
          <g class="illustration-reveal svg-shadow">
            <g class="illustration-loop">
              <path class="st0" d="M98 294H22c-6.6 0-12-5.4-12-12v-76c0-6.6 5.4-12 12-12h76c6.6 0 12 5.4 12 12v76c0 6.6-5.4 12-12 12z"></path>
              <g>
                <path d="M84.4 241.6c0-2.1-.2-3.5-.5-5.1H60.4v9.3h13.7c-.3 2.3-1.8 5.8-5.1 8.1v.3l7.4 5.7.5.1c4.7-4.4 7.5-10.8 7.5-18.4" fill="#4285f4"></path>
                <path d="M60.4 266c6.7 0 12.4-2.2 16.5-6l-7.9-6.1c-2.1 1.5-4.9 2.5-8.6 2.5-6.6 0-12.2-4.3-14.2-10.4h-.3l-7.7 6-.1.3c4.1 8.1 12.6 13.7 22.3 13.7" fill="#34a853"></path>
                <path d="M46.2 246c-.5-1.6-.8-3.2-.8-4.9 0-1.7.3-3.4.8-4.9v-.3l-7.8-6.1-.3.1c-1.7 3.4-2.7 7.2-2.7 11.2 0 4 1 7.8 2.7 11.2l8.1-6.3" fill="#fbbc05"></path>
                <path d="M60.4 225.8c4.7 0 7.8 2 9.6 3.7l7-6.9c-4.3-4-9.9-6.5-16.7-6.5-9.8 0-18.2 5.6-22.3 13.7l8.1 6.3c2.1-6 7.7-10.3 14.3-10.3" fill="#eb4335"></path>
              </g>
            </g>
          </g>
          <g class="illustration-reveal svg-shadow">
            <g class="illustration-loop">
              <path class="st0" d="M62 407H12c-6.6 0-12-5.4-12-12v-50c0-6.6 5.4-12 12-12h50c6.6 0 12 5.4 12 12v50c0 6.6-5.4 12-12 12z"></path>
              <g>
                <circle cx="38" cy="369" r="14.4" fill="#e84a88"></circle>
                <path d="M21 369c0-3.1.8-5.9 2.3-8.5 1.5-2.6 3.6-4.7 6.2-6.2S35 352 38 352c3.1 0 5.9.8 8.5 2.3 2.6 1.5 4.7 3.6 6.2 6.2S55 366 55 369s-.8 5.9-2.3 8.5c-1.5 2.6-3.6 4.7-6.2 6.2S41 386 38 386c-3.1 0-5.9-.8-8.5-2.3-2.6-1.5-4.7-3.6-6.2-6.2S21 372.1 21 369zm2.8 0c0 3.5 1.2 6.7 3.6 9.4 1.1-2.1 2.8-4.2 5.2-6.1 2.4-1.9 4.7-3.1 6.9-3.6-.3-.8-.7-1.5-1-2.1-3.9 1.2-8.1 1.9-12.6 1.9h-2v.3c-.1 0-.1.1-.1.2zm.5-3.5c.5 0 1.2.1 2.2.1 3.8 0 7.4-.5 10.8-1.5-1.7-3.1-3.6-5.6-5.7-7.7-1.8.9-3.3 2.2-4.6 3.8-1.3 1.6-2.2 3.3-2.7 5.3zm5 14.7c2.6 2 5.5 3 8.7 3 1.7 0 3.3-.3 5-1-.5-3.9-1.3-7.6-2.7-11.3-2.1.5-4.2 1.6-6.3 3.4-2.1 1.9-3.6 3.9-4.7 5.9zm5.2-24.9c2 2.1 3.8 4.6 5.5 7.7 3.1-1.3 5.4-2.9 7-4.9-2.6-2.2-5.6-3.3-9-3.3-1.2 0-2.3.2-3.5.5zm6.8 10.1c.3.7.7 1.6 1.2 2.8 1.7-.2 3.5-.2 5.5-.2 1.4 0 2.8 0 4.2.1-.2-3.1-1.3-5.8-3.3-8.2-1.6 2.1-4.1 4-7.6 5.5zm2 5.2c1.2 3.4 1.9 6.8 2.3 10.3 1.8-1.2 3.3-2.6 4.4-4.5 1.1-1.8 1.8-3.8 2-5.9-1.7-.1-3.2-.2-4.5-.2-1.2.1-2.6.2-4.2.3z" fill="#c22260"></path>
              </g>
            </g>
          </g>
          <g class="illustration-reveal svg-shadow">
            <g class="illustration-loop">
              <path class="st0" d="M198 430h-65c-6.6 0-12-5.4-12-12v-65c0-6.6 5.4-12 12-12h65c6.6 0 12 5.4 12 12v65c0 6.6-5.4 12-12 12z"></path>
              <g>
                <path class="st0" d="M167.5 403.4c-8.3 0-17.8-10-17-18.3.8-7.9 11.3-15.3 19.2-14.2 6.9.9 13 9.6 12.7 16.5-.4 7.3-7.6 16-14.9 16z"></path>
                <path d="M173.5 407.7c-.6-.2-1.4-.4-1.9-.6-.6-.3-1.2-.3-3.3-.2-2 .1-3 0-4.4-.2-7.6-1.3-13.6-6.8-15.8-14.4-.4-1.4-.5-2.2-.5-5.6 0-3.7-.1-4-.6-5.5-2.7-7.5 2.8-15.3 10.8-15.3 1.6 0 3.6.5 4.7 1 .8.4 1.2.5 4.2.5 2.6 0 3.7.1 5 .5 6 1.5 10.8 5.4 13.3 10.8 1.6 3.3 2.2 6.7 1.8 10.6-.2 2.1-.2 2.3.3 3.5 1.5 4.4.1 9.5-3.6 12.6-1.1.9-3.4 2-4.8 2.4-1.5.3-3.7.3-5.2-.1zm-2.6-7.3c3.1-.7 5.9-2.6 6.9-4.8 1.3-2.7.9-6-.9-7.9-1.5-1.7-3.8-2.6-9.2-4-3.6-.9-4.4-1.2-5.2-2.1-.7-.8-.8-1.3-.2-2.2.6-.9 2-1.5 3.9-1.6 2.7-.2 4 .5 5.6 3 1.2 1.9 2.5 2.4 4.1 1.6 2.1-1 1.9-4.4-.4-6.4-2.2-1.8-4.5-2.6-8.5-2.6-4.2 0-7 .9-8.9 2.7-1.5 1.5-1.8 2.4-1.8 4.7 0 2.5.3 3.2 1.9 4.6 1.7 1.6 3.1 2.2 8.2 3.4 3.6.9 4.5 1.3 5.4 2.3.4.5.6.9.6 1.7 0 .9-.1 1.1-.9 1.9-1.1 1.1-2.8 1.6-5 1.5-2.6-.2-3.7-.9-5-3.6-.9-1.8-1.7-2.5-2.9-2.5-2.7 0-3.7 2.3-2.3 5.2 1.2 2.6 3.7 4.3 6.8 4.9 1.9.6 6.1.6 7.8.2z" fill="#00aff0"></path>
              </g>
            </g>
          </g>
          <g class="illustration-reveal svg-shadow">
            <g class="illustration-loop">
              <path class="st0" d="M420 398h-86c-6.6 0-12-5.4-12-12v-86c0-6.6 5.4-12 12-12h86c6.6 0 12 5.4 12 12v86c0 6.6-5.4 12-12 12z"></path>
              <g fill-rule="evenodd" clip-rule="evenodd">
                <path d="M369.9 317.5c-2.8 0-5.1 2.3-5.1 5.1s2.3 5.1 5.1 5.1h5.1v-5.1c.1-2.8-2.2-5.1-5.1-5.1m0 13.7h-13.7c-2.8 0-5.1 2.3-5.1 5.1s2.3 5.1 5.1 5.2h13.7c2.8 0 5.1-2.3 5.1-5.1.1-2.9-2.2-5.2-5.1-5.2z" fill="#36c5f0"></path>
                <path d="M402.5 336.4c0-2.8-2.3-5.1-5.1-5.1s-5.1 2.3-5.1 5.1v5.2h5.1c2.8-.1 5.1-2.4 5.1-5.2zm-13.7 0v-13.7c0-2.8-2.3-5.1-5.1-5.1s-5.1 2.3-5.1 5.1v13.7c0 2.8 2.3 5.1 5.1 5.2 2.8-.1 5.1-2.4 5.1-5.2z" fill="#2eb67d"></path>
                <path d="M383.7 369c2.8 0 5.1-2.3 5.1-5.1s-2.3-5.1-5.1-5.1h-5.1v5.1c-.1 2.8 2.2 5.1 5.1 5.1zm0-13.7h13.7c2.8 0 5.1-2.3 5.1-5.1s-2.3-5.1-5.1-5.2h-13.7c-2.8 0-5.1 2.3-5.1 5.1-.1 2.9 2.2 5.2 5.1 5.2z" fill="#ecb22e"></path>
                <path d="M351.1 350.1c0 2.8 2.3 5.1 5.1 5.1s5.1-2.3 5.1-5.1V345h-5.1c-2.8 0-5.1 2.3-5.1 5.1zm13.7 0v13.7c0 2.8 2.3 5.1 5.1 5.2 2.8 0 5.1-2.3 5.1-5.1v-13.7c0-2.8-2.3-5.1-5.1-5.2-2.8 0-5.1 2.3-5.1 5.1" fill="#e01e5a"></path>
              </g>
            </g>
          </g>
        </svg>